<?xml version="1.0" standalone="no"?>
<!DOCTYPE svg PUBLIC "-//W3C//DTD SVG 20010904//EN"
 "http://www.w3.org/TR/2001/REC-SVG-20010904/DTD/svg10.dtd">
<svg version="1.0" xmlns="http://www.w3.org/2000/svg"
 width="200.000000pt" height="49.000000pt" viewBox="0 0 200.000000 49.000000"
 preserveAspectRatio="xMidYMid meet">

<g transform="translate(0.000000,49.000000) scale(0.100000,-0.100000)"
fill="#000000" stroke="none">
<path d="M210 450 c-146 -28 -216 -179 -144 -311 l27 -49 -28 -30 -29 -30 118
0 c144 0 188 12 242 65 72 72 83 174 27 262 -43 69 -133 109 -213 93z m55
-143 c4 -13 5 -50 3 -82 -2 -48 -7 -60 -20 -63 -16 -3 -18 6 -18 76 0 43 3 82
7 85 12 13 23 7 28 -16z m-65 -68 c0 -66 -24 -62 -28 4 -2 37 0 47 12 47 12 0
16 -12 16 -51z m128 10 c3 -38 -10 -65 -27 -55 -12 8 -15 78 -4 90 14 14 28
-2 31 -35z m-190 -6 c-4 -22 -22 -20 -26 1 -2 10 3 16 13 16 10 0 15 -7 13
-17z m247 7 c3 -5 4 -14 0 -20 -8 -13 -35 -1 -35 16 0 16 26 19 35 4z"/>
<path d="M591 248 c1 -40 4 -61 6 -45 6 35 36 36 59 2 9 -14 19 -23 22 -21 3
3 -1 12 -7 20 -10 12 -10 20 3 38 9 12 16 26 16 30 0 19 -43 48 -70 48 l-30 0
1 -72z m67 53 c8 -4 12 -19 10 -32 -2 -19 -10 -25 -35 -27 -32 -3 -33 -2 -33
32 0 31 3 36 23 36 12 0 28 -4 35 -9z"/>
<path d="M1114 251 c1 -57 5 -76 16 -79 12 -4 13 -2 3 9 -7 8 -14 44 -16 79
-4 63 -4 63 -3 -9z"/>
<path d="M1240 318 c0 -7 57 -138 62 -143 5 -6 59 118 58 133 -1 4 -14 -20
-29 -53 l-28 -60 -22 48 c-11 27 -21 53 -21 57 0 5 -4 12 -10 15 -5 3 -10 5
-10 3z"/>
<path d="M1540 310 c0 -5 5 -10 10 -10 6 0 10 5 10 10 0 6 -4 10 -10 10 -5 0
-10 -4 -10 -10z"/>
<path d="M742 233 c-1 -29 0 -53 2 -53 2 0 13 -3 23 -6 17 -6 17 -6 1 7 -10 8
-19 32 -21 59 l-4 45 -1 -52z"/>
<path d="M811 245 c-1 -23 -7 -47 -13 -55 -7 -8 -9 -11 -4 -7 5 4 15 2 21 -3
10 -8 12 0 8 37 -6 65 -11 76 -12 28z"/>
<path d="M882 225 c1 -43 2 -49 5 -20 3 26 12 47 26 58 l22 18 -22 -10 c-16
-8 -23 -8 -26 2 -3 6 -5 -15 -5 -48z"/>
<path d="M986 272 c-2 -4 8 -8 22 -7 24 0 27 -4 30 -40 2 -22 7 -44 12 -49 12
-12 0 76 -13 92 -11 13 -43 16 -51 4z"/>
<path d="M1406 258 c-9 -12 -16 -28 -16 -35 0 -17 37 -53 54 -53 43 0 64 80
27 100 -30 16 -48 12 -65 -12z m64 -2 c15 -20 9 -56 -12 -70 -13 -8 -22 -6
-37 8 -25 23 -26 39 -5 60 19 20 38 20 54 2z"/>
<path d="M1540 230 c0 -27 5 -50 10 -50 6 0 10 23 10 50 0 28 -4 50 -10 50 -5
0 -10 -22 -10 -50z"/>
<path d="M1628 269 c-12 -6 -18 -22 -18 -44 0 -43 29 -63 68 -46 13 7 22 14
19 17 -3 3 -14 0 -25 -7 -17 -10 -23 -10 -36 0 -36 30 -8 89 35 76 14 -5 19
-4 15 4 -9 14 -35 14 -58 0z"/>
<path d="M1757 262 c-22 -24 -22 -56 0 -73 15 -13 15 -12 4 9 -11 21 -10 22
34 22 49 0 59 15 27 43 -24 22 -45 21 -65 -1z m61 -4 c21 -21 13 -28 -28 -28
-22 0 -40 4 -40 8 0 14 23 32 40 32 9 0 21 -5 28 -12z"/>
<path d="M1897 273 c-17 -16 -5 -42 23 -52 36 -12 39 -28 8 -41 -13 -5 -18 -9
-11 -9 48 -3 59 42 13 58 -35 12 -40 38 -7 44 20 4 20 4 1 6 -11 0 -24 -2 -27
-6z"/>
<path d="M977 223 c-13 -12 -7 -41 9 -47 25 -10 29 -7 9 8 -11 8 -16 19 -12
30 7 17 5 20 -6 9z"/>
<path d="M1800 184 c-17 -9 -20 -14 -9 -14 9 0 22 7 29 15 15 18 13 18 -20 -1z"/>
</g>
</svg>
